HIERARCHY
ROOT mixamorig:Hips
{
	OFFSET 0.000000 104.274902 0.000000
	CHANNELS 6 Xposition Yposition Zposition Xrotation Yrotation Zrotation
	JOINT mixamorig:Spine
	{
		OFFSET 0.000000 10.181549 0.131524
		CHANNELS 6 Xposition Yposition Zposition Xrotation Yrotation Zrotation
		JOINT mixamorig:Spine1
		{
			OFFSET 0.000000 9.893990 -1.470706
			CHANNELS 3 Xrotation Yrotation Zrotation
			JOINT mixamorig:Spine2
			{
				OFFSET 0.000000 9.220787 -1.370637
				CHANNELS 3 Xrotation Yrotation Zrotation
				JOINT mixamorig:Neck
				{
					OFFSET 0.000000 16.740372 -2.049022
					CHANNELS 6 Xposition Yposition Zposition Xrotation Yrotation Zrotation
					JOINT mixamorig:Head
					{
						OFFSET 0.000000 9.617859 1.684976
						CHANNELS 6 Xposition Yposition Zposition Xrotation Yrotation Zrotation
						JOINT mixamorig:HeadTop_End
						{
							OFFSET 0.000000 22.037384 7.501072
							CHANNELS 6 Xposition Yposition Zposition Xrotation Yrotation Zrotation
							End Site
							{
								OFFSET 0.000000 23.106567 -2.828246
							}
						}
					}
				}
				JOINT mixamorig:RightShoulder
				{
					OFFSET -4.570000 11.014877 -2.160840
					CHANNELS 6 Xposition Yposition Zposition Xrotation Yrotation Zrotation
					JOINT mixamorig:RightArm
					{
						OFFSET -10.592867 -0.524796 -2.232105
						CHANNELS 3 Xrotation Yrotation Zrotation
						JOINT mixamorig:RightForeArm
						{
							OFFSET -27.841497 0.000000 -0.000002
							CHANNELS 3 Xrotation Yrotation Zrotation
							JOINT mixamorig:RightHand
							{
								OFFSET -28.328812 0.000000 -0.000001
								CHANNELS 3 Xrotation Yrotation Zrotation
								JOINT mixamorig:RightHandThumb1
								{
									OFFSET -2.464798 -1.573990 2.681911
									CHANNELS 6 Xposition Yposition Zposition Xrotation Yrotation Zrotation
									JOINT mixamorig:RightHandThumb2
									{
										OFFSET -3.244781 -1.873383 1.873376
										CHANNELS 3 Xrotation Yrotation Zrotation
										JOINT mixamorig:RightHandThumb3
										{
											OFFSET -2.646263 -1.527817 1.527818
											CHANNELS 6 Xposition Yposition Zposition Xrotation Yrotation Zrotation
											JOINT mixamorig:RightHandThumb4
											{
												OFFSET -1.994591 -1.151581 1.151575
												CHANNELS 6 Xposition Yposition Zposition Xrotation Yrotation Zrotation
												End Site
												{
													OFFSET -1.860176 -1.142715 1.365483
												}
											}
										}
									}
								}
								JOINT mixamorig:RightHandIndex1
								{
									OFFSET -9.108299 -0.517883 2.259803
									CHANNELS 6 Xposition Yposition Zposition Xrotation Yrotation Zrotation
									JOINT mixamorig:RightHandIndex2
									{
										OFFSET -3.699997 0.000000 0.000000
										CHANNELS 3 Xrotation Yrotation Zrotation
										JOINT mixamorig:RightHandIndex3
										{
											OFFSET -2.850006 0.000000 0.000000
											CHANNELS 3 Xrotation Yrotation Zrotation
											JOINT mixamorig:RightHandIndex4
											{
												OFFSET -2.772194 0.000000 0.000000
												CHANNELS 3 Xrotation Yrotation Zrotation
												End Site
												{
													OFFSET -2.772202 0.000000 -0.000484
												}
											}
										}
									}
								}
								JOINT mixamorig:RightHandMiddle1
								{
									OFFSET -9.532501 0.000000 -0.000000
									CHANNELS 6 Xposition Yposition Zposition Xrotation Yrotation Zrotation
									JOINT mixamorig:RightHandMiddle2
									{
										OFFSET -3.699997 0.000000 0.000000
										CHANNELS 3 Xrotation Yrotation Zrotation
										JOINT mixamorig:RightHandMiddle3
										{
											OFFSET -2.949997 0.000000 0.000000
											CHANNELS 3 Xrotation Yrotation Zrotation
											JOINT mixamorig:RightHandMiddle4
											{
												OFFSET -2.946594 0.000000 0.000000
												CHANNELS 3 Xrotation Yrotation Zrotation
												End Site
												{
													OFFSET -2.946602 0.000000 -0.000982
												}
											}
										}
									}
								}
								JOINT mixamorig:RightHandRing1
								{
									OFFSET -9.103600 -0.043106 -1.865100
									CHANNELS 6 Xposition Yposition Zposition Xrotation Yrotation Zrotation
									JOINT mixamorig:RightHandRing2
									{
										OFFSET -3.379303 0.000000 0.000000
										CHANNELS 3 Xrotation Yrotation Zrotation
										JOINT mixamorig:RightHandRing3
										{
											OFFSET -2.889694 0.000000 0.000000
											CHANNELS 3 Xrotation Yrotation Zrotation
											JOINT mixamorig:RightHandRing4
											{
												OFFSET -2.638802 0.000000 0.000000
												CHANNELS 3 Xrotation Yrotation Zrotation
												End Site
												{
													OFFSET -2.638802 0.000000 0.004218
												}
											}
										}
									}
								}
								JOINT mixamorig:RightHandPinky1
								{
									OFFSET -8.076698 -0.486725 -3.806299
									CHANNELS 6 Xposition Yposition Zposition Xrotation Yrotation Zrotation
									JOINT mixamorig:RightHandPinky2
									{
										OFFSET -3.600006 0.000000 0.000000
										CHANNELS 3 Xrotation Yrotation Zrotation
										JOINT mixamorig:RightHandPinky3
										{
											OFFSET -2.099998 0.000000 0.000000
											CHANNELS 3 Xrotation Yrotation Zrotation
											JOINT mixamorig:RightHandPinky4
											{
												OFFSET -2.115791 0.000000 0.000000
												CHANNELS 3 Xrotation Yrotation Zrotation
												End Site
												{
													OFFSET -2.115799 0.000000 0.000174
												}
											}
										}
									}
								}
							}
						}
					}
				}
				JOINT mixamorig:LeftShoulder
				{
					OFFSET 4.570400 11.014679 -2.160816
					CHANNELS 6 Xposition Yposition Zposition Xrotation Yrotation Zrotation
					JOINT mixamorig:LeftArm
					{
						OFFSET 10.592373 -0.524597 -2.232116
						CHANNELS 3 Xrotation Yrotation Zrotation
						JOINT mixamorig:LeftForeArm
						{
							OFFSET 27.841488 0.000000 0.000001
							CHANNELS 3 Xrotation Yrotation Zrotation
							JOINT mixamorig:LeftHand
							{
								OFFSET 28.328808 0.000000 -0.000000
								CHANNELS 3 Xrotation Yrotation Zrotation
								JOINT mixamorig:LeftHandThumb1
								{
									OFFSET 2.466103 -1.576202 2.681698
									CHANNELS 6 Xposition Yposition Zposition Xrotation Yrotation Zrotation
									JOINT mixamorig:LeftHandThumb2
									{
										OFFSET 3.243317 -1.872528 1.872530
										CHANNELS 3 Xrotation Yrotation Zrotation
										JOINT mixamorig:LeftHandThumb3
										{
											OFFSET 2.647881 -1.528763 1.528754
											CHANNELS 6 Xposition Yposition Zposition Xrotation Yrotation Zrotation
											JOINT mixamorig:LeftHandThumb4
											{
												OFFSET 1.998924 -1.154083 1.154080
												CHANNELS 6 Xposition Yposition Zposition Xrotation Yrotation Zrotation
												End Site
												{
													OFFSET 1.884041 -1.149155 1.337651
												}
											}
										}
									}
								}
								JOINT mixamorig:LeftHandIndex1
								{
									OFFSET 9.109299 -0.518005 2.259900
									CHANNELS 6 Xposition Yposition Zposition Xrotation Yrotation Zrotation
									JOINT mixamorig:LeftHandIndex2
									{
										OFFSET 3.699997 0.000000 0.000000
										CHANNELS 3 Xrotation Yrotation Zrotation
										JOINT mixamorig:LeftHandIndex3
										{
											OFFSET 2.850006 0.000000 0.000000
											CHANNELS 3 Xrotation Yrotation Zrotation
											JOINT mixamorig:LeftHandIndex4
											{
												OFFSET 2.774895 0.000000 0.000000
												CHANNELS 3 Xrotation Yrotation Zrotation
												End Site
												{
													OFFSET 2.774902 0.000000 -0.000072
												}
											}
										}
									}
								}
								JOINT mixamorig:LeftHandMiddle1
								{
									OFFSET 9.533401 0.000000 0.000000
									CHANNELS 6 Xposition Yposition Zposition Xrotation Yrotation Zrotation
									JOINT mixamorig:LeftHandMiddle2
									{
										OFFSET 3.699997 0.000000 0.000000
										CHANNELS 3 Xrotation Yrotation Zrotation
										JOINT mixamorig:LeftHandMiddle3
										{
											OFFSET 2.949997 0.000000 0.000000
											CHANNELS 3 Xrotation Yrotation Zrotation
											JOINT mixamorig:LeftHandMiddle4
											{
												OFFSET 2.952896 0.000000 0.000000
												CHANNELS 3 Xrotation Yrotation Zrotation
												End Site
												{
													OFFSET 2.952904 0.000000 0.000165
												}
											}
										}
									}
								}
								JOINT mixamorig:LeftHandRing1
								{
									OFFSET 9.104500 -0.042999 -1.865101
									CHANNELS 6 Xposition Yposition Zposition Xrotation Yrotation Zrotation
									JOINT mixamorig:LeftHandRing2
									{
										OFFSET 3.149994 0.000000 0.000000
										CHANNELS 3 Xrotation Yrotation Zrotation
										JOINT mixamorig:LeftHandRing3
										{
											OFFSET 2.950005 0.000000 0.000000
											CHANNELS 3 Xrotation Yrotation Zrotation
											JOINT mixamorig:LeftHandRing4
											{
												OFFSET 2.644302 0.000000 0.000000
												CHANNELS 3 Xrotation Yrotation Zrotation
												End Site
												{
													OFFSET 2.644302 0.000000 0.000083
												}
											}
										}
									}
								}
								JOINT mixamorig:LeftHandPinky1
								{
									OFFSET 8.077805 -0.486893 -3.806302
									CHANNELS 6 Xposition Yposition Zposition Xrotation Yrotation Zrotation
									JOINT mixamorig:LeftHandPinky2
									{
										OFFSET 3.600006 0.000000 0.000000
										CHANNELS 3 Xrotation Yrotation Zrotation
										JOINT mixamorig:LeftHandPinky3
										{
											OFFSET 2.099998 0.000000 0.000000
											CHANNELS 3 Xrotation Yrotation Zrotation
											JOINT mixamorig:LeftHandPinky4
											{
												OFFSET 2.125496 0.000000 0.000000
												CHANNELS 3 Xrotation Yrotation Zrotation
												End Site
												{
													OFFSET 2.125504 0.000000 -0.001254
												}
											}
										}
									}
								}
							}
						}
					}
				}
			}
		}
	}
	JOINT mixamorig:RightUpLeg
	{
		OFFSET -8.207800 -6.751701 -1.599544
		CHANNELS 6 Xposition Yposition Zposition Xrotation Yrotation Zrotation
		JOINT mixamorig:RightLeg
		{
			OFFSET 0.000004 -44.370152 0.345934
			CHANNELS 3 Xrotation Yrotation Zrotation
			JOINT mixamorig:RightFoot
			{
				OFFSET 0.000004 -44.423664 -3.043535
				CHANNELS 3 Xrotation Yrotation Zrotation
				JOINT mixamorig:RightToeBase
				{
					OFFSET 0.000001 -8.728691 10.710592
					CHANNELS 3 Xrotation Yrotation Zrotation
					JOINT mixamorig:RightToe_End
					{
						OFFSET 0.000000 -0.000665 9.278101
						CHANNELS 3 Xrotation Yrotation Zrotation
						End Site
						{
							OFFSET 0.000000 -0.000665 9.278103
						}
					}
				}
			}
		}
	}
	JOINT mixamorig:LeftUpLeg
	{
		OFFSET 8.207800 -6.751701 -1.599544
		CHANNELS 6 Xposition Yposition Zposition Xrotation Yrotation Zrotation
		JOINT mixamorig:LeftLeg
		{
			OFFSET 0.000004 -44.370037 0.346940
			CHANNELS 3 Xrotation Yrotation Zrotation
			JOINT mixamorig:LeftFoot
			{
				OFFSET 0.000004 -44.423611 -3.044388
				CHANNELS 3 Xrotation Yrotation Zrotation
				JOINT mixamorig:LeftToeBase
				{
					OFFSET 0.000001 -8.728690 10.710592
					CHANNELS 3 Xrotation Yrotation Zrotation
					JOINT mixamorig:LeftToe_End
					{
						OFFSET 0.000000 -0.000680 9.278101
						CHANNELS 3 Xrotation Yrotation Zrotation
						End Site
						{
							OFFSET 0.000000 -0.000680 9.278101
						}
					}
				}
			}
		}
	}
}
MOTION
Frames: 4
Frame Time: 0.033333
-0.345516 105.401222 2.095909 1.250283 9.678593 -6.903055 0.000000 10.181544 0.131524 -0.064582 0.072347 1.128037 1.020904 -0.200310 1.182948 1.010380 -0.216268 1.182069 0.000000 16.740383 -2.049021 -0.856674 -1.011310 0.878833 0.000001 9.617837 1.684981 -6.417020 -4.160917 0.580444 0.000000 22.037354 7.501071 -0.000000 -0.000000 -0.000000 -4.570001 11.014874 -2.160843 0.423733 -5.132659 11.001424 -15.827169 -19.173932 59.066171 0.000004 3.531672 0.000018 53.317652 -0.893955 -36.287426 -2.464800 -1.573974 2.681908 -1.854181 -3.564759 -6.597962 4.645036 -8.656782 -0.231283 -2.646269 -1.527817 1.527815 -1.269833 0.126067 -2.098654 -1.994587 -1.151584 1.151574 0.000001 0.000003 0.000001 -9.108299 -0.517865 2.259806 -0.000002 0.001727 -0.014152 0.000002 -0.000009 0.000007 -0.000009 -0.000002 0.000004 0.000000 0.000002 0.000004 -9.532495 0.000001 0.000000 -0.000002 0.001728 -0.014152 0.000003 -0.000010 0.000120 -0.000004 0.000008 0.000009 -0.000000 0.000001 0.000003 -9.103591 -0.043104 -1.865100 -0.000002 0.001727 -0.014152 0.000001 -0.000005 -0.000006 -0.000002 0.000003 0.000008 0.000001 0.000000 0.000003 -8.076690 -0.486707 -3.806296 -0.000005 0.001732 -0.014149 0.000005 -0.000015 0.000092 0.000001 0.000009 0.000001 -0.000002 -0.000001 0.000002 4.570401 11.014699 -2.160817 2.017200 -5.391683 -9.929657 -11.121298 -7.516271 -68.231268 0.000000 -23.333557 -0.000006 17.852902 -17.869610 12.738010 2.466096 -1.576200 2.681702 -1.539934 3.690268 6.142364 3.946738 7.971407 0.752820 2.647887 -1.528773 1.528752 -0.575603 1.586259 2.542389 1.998933 -1.154097 1.154074 0.000001 -0.000002 -0.000004 9.109298 -0.518018 2.259900 0.000006 -0.000005 0.000001 0.000001 0.000016 -0.000042 -0.000009 0.000001 -0.000009 -0.000001 -0.000003 0.000002 9.533405 0.000010 -0.000003 0.000016 -0.001923 0.015987 -0.000009 0.001927 -0.015972 -0.000000 -0.000002 -0.000008 0.000002 0.000002 0.000000 9.104499 -0.042996 -1.865102 0.000006 -0.000005 0.000001 0.000016 0.000022 -0.000049 -0.000007 -0.000000 -0.000001 -0.000000 -0.000002 0.000001 8.077801 -0.486897 -3.806301 -0.018081 4.054258 0.511074 -0.018095 -4.054252 -0.511067 0.000012 -0.000005 0.000010 0.000001 -0.000001 -0.000000 -8.207796 -6.751712 -1.599542 -8.130646 -10.256464 10.469379 19.292569 -7.246761 2.532452 13.909921 -0.798162 -10.073299 -20.476762 -0.151133 3.420097 -0.000000 -0.000000 0.000000 8.207801 -6.751713 -1.599544 -29.361095 -7.037996 -2.394669 57.264074 9.188472 9.460044 21.166002 3.048825 -1.932244 0.051208 0.000007 -0.000003 0.000001 0.000000 0.000001 
-0.323286 105.809235 4.946291 1.087491 7.943017 -5.252104 0.000000 10.181545 0.131521 -0.014923 0.558800 0.264800 1.074260 0.808300 0.404998 1.067083 0.794550 0.404453 0.000001 16.740355 -2.049019 -0.742382 -1.076180 0.568576 0.000000 9.617834 1.684972 -6.777772 -4.989359 1.020282 -0.000000 22.037384 7.501074 0.000001 -0.000000 -0.000000 -4.569998 11.014858 -2.160840 0.465854 -4.780190 10.722327 -18.630167 -14.714644 59.310494 -0.000004 4.254567 0.000022 54.757401 2.328707 -39.349775 -2.464799 -1.574009 2.681909 -1.855082 -3.529898 -6.622142 4.645034 -8.656782 -0.231286 -2.646269 -1.527816 1.527815 -1.269837 0.126067 -2.098652 -1.994586 -1.151586 1.151567 0.000003 -0.000000 -0.000002 -9.108308 -0.517902 2.259802 0.000006 0.005260 -0.043113 0.000002 -0.000005 0.000007 -0.000008 0.000005 0.000004 0.000001 0.000001 -0.000001 -9.532503 -0.000018 -0.000001 0.000006 0.005260 -0.043113 0.000004 -0.000011 0.000121 -0.000004 0.000008 0.000002 -0.000001 0.000001 0.000001 -9.103599 -0.043127 -1.865102 0.000006 0.005259 -0.043113 0.000001 -0.000007 -0.000006 -0.000003 0.000002 0.000004 -0.000000 0.000002 0.000001 -8.076694 -0.486739 -3.806297 0.000011 0.005269 -0.043121 0.000004 -0.000021 0.000091 0.000001 0.000009 0.000001 -0.000001 -0.000000 0.000001 4.570401 11.014668 -2.160814 1.957723 -5.266017 -9.841286 -9.515867 -1.740724 -67.038546 -0.000009 -18.694457 -0.000027 20.420947 -16.965616 13.330400 2.466103 -1.576183 2.681713 -1.539933 3.690268 6.142364 3.946739 7.971406 0.752816 2.647877 -1.528768 1.528759 -0.575602 1.586257 2.542389 1.998945 -1.154078 1.154077 0.000001 0.000001 -0.000005 9.109302 -0.518003 2.259912 0.000009 -0.000001 0.000002 0.000001 0.000014 -0.000039 -0.000010 0.000000 -0.000006 0.000001 0.000003 -0.000001 9.533402 0.000027 0.000010 0.000017 -0.001919 0.015985 -0.000009 0.001928 -0.015975 -0.000002 -0.000001 -0.000009 0.000002 -0.000002 -0.000000 9.104495 -0.042981 -1.865089 0.000009 -0.000001 0.000002 0.000016 0.000025 -0.000049 -0.000005 -0.000002 0.000000 -0.000001 0.000000 0.000001 8.077806 -0.486876 -3.806294 -0.018078 4.054256 0.511075 -0.018093 -4.054248 -0.511069 0.000013 -0.000005 0.000011 -0.000001 -0.000001 0.000003 -8.207798 -6.751719 -1.599544 -5.103296 -10.806411 9.149890 17.049487 -4.633165 2.225528 13.296398 -0.594835 -9.924798 -20.455884 -0.198638 3.185497 0.000000 -0.000000 -0.000000 8.207801 -6.751709 -1.599549 -30.236216 -6.330221 -3.995207 51.096252 8.890968 8.958754 20.307232 2.485645 -2.096677 -2.023977 0.000001 0.000001 -0.000001 -0.000000 -0.000000 
-0.210386 106.132286 7.623041 0.714288 5.800431 -3.209928 0.000000 10.181547 0.131524 0.093905 1.104846 -0.949002 1.181105 1.946021 -0.118014 1.177495 1.937957 -0.117691 0.000000 16.740381 -2.049020 -0.671492 -1.101682 0.110780 0.000000 9.617872 1.684975 -7.346884 -5.789638 1.376269 -0.000001 22.037354 7.501075 -0.000000 -0.000000 0.000000 -4.570003 11.014889 -2.160838 0.466385 -4.686931 10.354322 -21.592728 -10.057770 59.455622 -0.000000 5.748605 0.000013 56.494523 6.070435 -42.904981 -2.464800 -1.573981 2.681906 -1.856636 -3.481937 -6.655408 4.645033 -8.656787 -0.231282 -2.646274 -1.527799 1.527809 -1.269837 0.126064 -2.098656 -1.994587 -1.151584 1.151568 0.000002 -0.000001 0.000001 -9.108302 -0.517864 2.259803 -0.000001 0.010120 -0.082984 0.000004 -0.000004 0.000004 -0.000005 0.000003 0.000004 0.000001 0.000002 0.000003 -9.532496 0.000009 -0.000003 -0.000001 0.010120 -0.082984 0.000004 -0.000006 0.000121 -0.000003 0.000006 0.000002 -0.000001 -0.000001 0.000001 -9.103597 -0.043093 -1.865101 -0.000001 0.010120 -0.082984 0.000004 -0.000002 -0.000007 -0.000002 0.000000 0.000002 -0.000002 -0.000002 -0.000000 -8.076697 -0.486704 -3.806300 -0.000001 0.010120 -0.082984 0.000005 -0.000018 0.000091 0.000001 0.000012 0.000003 0.000000 0.000002 -0.000002 4.570404 11.014688 -2.160814 1.923526 -5.194458 -9.757677 -8.065071 4.624497 -66.029269 0.000005 -15.368465 0.000015 23.172209 -15.338832 13.816832 2.466110 -1.576197 2.681699 -1.539934 3.690266 6.142365 3.946741 7.971401 0.752819 2.647881 -1.528772 1.528751 -0.575603 1.586259 2.542391 1.998928 -1.154083 1.154081 -0.000000 0.000002 0.000001 9.109300 -0.518016 2.259898 0.000008 -0.000007 -0.000000 0.000003 0.000017 -0.000040 -0.000008 0.000002 -0.000009 -0.000000 -0.000004 -0.000002 9.533411 0.000003 -0.000002 0.000019 -0.001923 0.015988 -0.000011 0.001927 -0.015973 0.000001 0.000001 -0.000011 0.000001 -0.000002 0.000003 9.104501 -0.042994 -1.865101 0.000008 -0.000007 -0.000000 0.000015 0.000024 -0.000050 -0.000007 -0.000003 0.000001 0.000001 -0.000004 -0.000000 8.077799 -0.486893 -3.806297 -0.018079 4.054255 0.511075 -0.018096 -4.054250 -0.511069 0.000011 -0.000007 0.000008 0.000001 0.000003 -0.000000 -8.207801 -6.751715 -1.599543 -2.616388 -11.596591 7.102524 15.827140 -1.431571 1.920456 12.356014 -0.428172 -9.669510 -20.095371 -0.189441 2.986821 -0.000000 0.000000 -0.000000 8.207801 -6.751709 -1.599544 -29.397264 -4.729739 -5.285595 41.992426 8.422357 8.215939 20.742386 1.743072 -2.238999 -4.932547 0.018478 -1.415974 -0.000002 -0.000000 -0.000000 
-0.038548 106.345871 10.610970 0.370419 3.397370 -1.363461 -0.000000 10.181567 0.131523 0.238183 1.681719 -2.163247 1.319065 3.140918 -0.572808 1.318714 3.138674 -0.571603 -0.000000 16.740366 -2.049022 -0.623360 -1.103690 -0.405876 0.000001 9.617852 1.684973 -8.012523 -6.534468 1.747813 0.000000 22.037354 7.501069 -0.000001 0.000000 0.000000 -4.569999 11.014857 -2.160842 0.449897 -4.661319 9.942454 -24.530717 -5.614817 59.754695 -0.000014 8.378497 0.000011 58.410876 9.980058 -46.617288 -2.464788 -1.573981 2.681909 -1.858469 -3.431100 -6.690692 4.645030 -8.656788 -0.231285 -2.646274 -1.527804 1.527815 -1.269834 0.126064 -2.098656 -1.994583 -1.151582 1.151570 0.000003 -0.000000 -0.000000 -9.108307 -0.517873 2.259802 0.000020 0.015265 -0.125241 0.000003 -0.000008 0.000006 -0.000006 0.000002 0.000004 0.000000 0.000001 0.000001 -9.532497 -0.000008 -0.000001 0.000019 0.015264 -0.125241 0.000004 -0.000008 0.000122 -0.000004 0.000003 0.000003 -0.000001 -0.000002 0.000001 -9.103607 -0.043105 -1.865101 0.000020 0.015265 -0.125241 0.000003 -0.000004 -0.000005 -0.000003 0.000001 0.000005 0.000001 -0.000003 0.000001 -8.076696 -0.486725 -3.806301 0.000016 0.015264 -0.125242 0.000005 -0.000020 0.000091 0.000001 0.000009 0.000002 -0.000000 0.000001 -0.000000 4.570401 11.014687 -2.160817 1.908495 -5.156495 -9.678118 -6.610522 11.074324 -65.274786 -0.000018 -12.826825 -0.000040 25.965545 -13.612961 13.976355 2.466095 -1.576199 2.681696 -1.539935 3.690268 6.142364 3.946737 7.971404 0.752818 2.647893 -1.528773 1.528751 -0.575601 1.586257 2.542389 1.998929 -1.154083 1.154082 -0.000001 0.000001 -0.000002 9.109301 -0.518007 2.259899 0.000007 -0.000007 0.000003 0.000003 0.000017 -0.000040 -0.000011 -0.000000 -0.000008 0.000002 0.000002 -0.000000 9.533398 -0.000003 -0.000000 0.000016 -0.001924 0.015987 -0.000009 0.001928 -0.015972 0.000000 0.000003 -0.000009 -0.000001 0.000002 0.000001 9.104494 -0.043000 -1.865101 0.000007 -0.000007 0.000003 0.000015 0.000026 -0.000048 -0.000008 -0.000002 -0.000000 -0.000000 -0.000000 -0.000001 8.077793 -0.486895 -3.806300 -0.018078 4.054253 0.511074 -0.018094 -4.054251 -0.511068 0.000012 -0.000008 0.000011 -0.000002 0.000001 0.000001 -8.207798 -6.751708 -1.599544 0.040878 -12.518053 5.043484 14.827384 -0.744893 1.597784 9.902003 -0.346634 -11.269086 -18.288525 -0.140851 4.271090 0.000001 0.000001 0.000000 8.207799 -6.751705 -1.599548 -27.886033 -2.922970 -6.203338 31.692973 7.846701 7.354559 21.749190 0.937528 -2.462043 -2.771406 0.014522 -0.716745 -0.000000 -0.000000 -0.000000 
